<?xml version="1.0" standalone="no"?>
<!DOCTYPE svg PUBLIC "-//W3C//DTDSVG20010904//EN"  "http://www.w3.org/TR/2001/REC-SVG-20010904/DTD/svg10.dtd">
<svg version="1.0" xmlns="http://www.w3.org/2000/svg" width="2656.000000pt" height="2656.000000pt" viewBox="0 0 2656.000000 2656.000000" preserveAspectRatio="xMidYMid meet">
    <metadata>
        Created by potrace 1.11, written by Peter Selinger 2001-2013
    </metadata>
    <g transform="translate(0.000000,2656.000000) scale(0.100000,-0.100000)" fill="#000000" stroke="none">
        <path d="M695 15743 c-158 -27 -235 -63 -325 -153 -60 -60 -115 -144 -125
            -187 -2 -10 -10 -38 -17 -63 -60 -194 37 -446 218 -566 58 -39 188 -89 204
            -79 6 3 10 2 10 -2 0 -9 113 -8 173 1 48 8 147 48 189 77 160 109 241 273 233
            468 -5 147 -51 250 -159 356 -89 88 -202 137 -336 148 -25 2 -54 2 -65 0z"/>
        <path d="M6228 15664 c-3 -2 -174 -13 -275 -17 -18 -1 -33 -4 -33 -7 0 -3 -14
            -5 -31 -4 -17 0 -63 -5 -102 -12 -40 -6 -90 -15 -112 -19 -22 -4 -49 -8 -60
            -10 -11 -1 -38 -8 -60 -13 -22 -6 -51 -13 -65 -15 -14 -3 -59 -15 -100 -27
            l-75 -22 1 -1586 c2 -1489 4 -1688 19 -1802 31 -224 133 -501 243 -662 17 -26
            32 -51 32 -54 0 -15 137 -179 212 -256 188 -190 435 -343 673 -418 200 -63
            340 -84 545 -83 191 1 358 28 515 83 33 12 65 23 70 24 34 9 193 84 249 117
            l33 19 -77 78 c-42 42 -107 116 -144 162 -37 47 -75 94 -83 104 -13 16 -86
            129 -130 201 -7 11 -38 71 -68 133 -31 61 -58 112 -60 112 -3 0 -39 -11 -80
            -25 -42 -14 -94 -29 -118 -32 -76 -11 -262 -7 -282 7 -5 4 -27 10 -48 14 -21
            4 -79 28 -129 53 -69 36 -109 66 -172 127 -80 79 -126 135 -126 155 0 5 -4 11
            -8 13 -11 4 -57 114 -76 178 -24 88 -26 142 -26 700 1 489 0 582 -2 599 0 3 0
            23 1 44 l1 38 48 -2 c27 -1 53 0 58 4 6 3 27 2 47 -3 20 -4 39 -4 42 0 3 5 18
            5 34 0 16 -4 31 -6 34 -4 2 2 48 4 103 4 54 -1 108 -1 119 -1 11 0 53 1 92 2
            40 0 77 -2 82 -5 5 -4 12 -2 15 2 3 5 16 7 29 5 20 -4 26 0 31 23 15 57 54
            261 60 309 4 28 9 57 11 65 2 8 7 42 10 75 4 33 8 74 10 90 8 65 17 205 19
            303 l3 102 -423 0 -423 0 -3 23 c-2 12 -1 36 3 54 4 18 4 35 1 38 -5 4 -6 117
            -1 141 1 5 0 14 -1 19 -2 12 -2 128 1 141 1 5 1 11 0 14 -1 4 -2 321 0 373 0
            9 0 86 -1 171 l-1 154 -24 5 c-14 2 -26 3 -27 1z"/>
        <path d="M12477 15664 c-1 -1 -58 -5 -127 -9 -142 -9 -167 -11 -230 -20 -25
            -3 -59 -8 -76 -9 -16 -2 -39 -6 -50 -9 -10 -3 -39 -8 -65 -11 -25 -3 -52 -7
            -60 -10 -7 -3 -25 -7 -39 -10 -58 -11 -236 -59 -245 -66 -7 -6 -10 -804 -10
            -2437 l0 -2428 478 0 c262 -1 478 2 478 5 1 3 2 1129 3 2502 l1 2496 -28 5
            c-15 2 -28 3 -30 1z"/>
        <path d="M13838 15665 c-1 -1 -59 -6 -128 -9 -120 -7 -141 -9 -240 -22 -25 -3
            -61 -7 -80 -10 -19 -2 -46 -6 -60 -9 -14 -2 -38 -7 -55 -10 -36 -6 -55 -10
            -120 -25 -27 -7 -63 -14 -79 -17 -16 -2 -41 -9 -55 -15 -14 -5 -37 -12 -51
            -15 -13 -2 -29 -8 -35 -13 -12 -10 -13 -3074 -1 -3140 3 -19 8 -59 12 -89 3
            -29 10 -65 15 -78 5 -13 8 -27 7 -31 -5 -25 92 -333 114 -357 4 -5 8 -17 8
            -27 0 -10 5 -18 10 -18 6 0 10 -6 10 -14 0 -36 128 -247 228 -375 108 -138
            229 -255 389 -374 122 -91 359 -218 453 -243 8 -2 48 -15 88 -29 65 -23 223
            -61 292 -70 175 -24 445 -24 570 0 10 2 33 6 51 9 82 13 252 60 338 93 124 47
            342 160 396 205 6 5 42 32 80 60 278 207 513 518 641 849 59 152 103 337 120
            504 13 124 7 397 -11 485 -12 62 -15 77 -20 105 -10 62 -48 193 -82 285 -38
            102 -113 263 -125 268 -5 2 -8 8 -8 14 0 5 -26 49 -57 96 -32 48 -60 92 -62
            97 -2 6 -15 20 -28 32 -12 12 -23 27 -23 33 0 12 -286 300 -299 300 -4 0 -21
            11 -37 25 -16 14 -65 48 -109 77 -44 28 -91 58 -105 67 -14 9 -52 29 -85 45
            -33 15 -67 32 -76 36 -19 9 -126 51 -189 73 -58 21 -184 54 -234 61 -21 4 -48
            9 -60 11 -99 24 -452 25 -591 2 -121 -20 -295 -64 -314 -80 -8 -7 -15 -10 -15
            -8 -2 8 -106 -30 -176 -65 -39 -19 -75 -34 -80 -34 -6 0 -10 -4 -10 -10 0 -5
            -8 -10 -19 -10 -10 0 -24 -7 -31 -15 -7 -9 -16 -13 -19 -9 -3 3 -6 314 -6 691
            l-1 686 -21 8 c-12 4 -23 6 -25 4z m1240 -2135 c46 -12 95 -28 110 -36 15 -8
            35 -14 44 -14 9 0 18 -3 20 -7 2 -5 32 -23 68 -42 36 -19 67 -37 70 -40 3 -3
            25 -22 50 -42 196 -158 332 -401 356 -637 11 -101 7 -231 -9 -302 -11 -46 -21
            -96 -22 -102 0 -3 -3 -10 -7 -14 -5 -4 -8 -13 -8 -20 0 -14 -70 -167 -80 -174
            -3 -3 -9 -12 -12 -20 -23 -63 -172 -218 -278 -290 -60 -41 -180 -103 -220
            -113 -25 -7 -25 -6 -80 -23 -108 -33 -313 -37 -435 -9 -160 36 -325 121 -439
            224 -38 35 -49 47 -96 101 -34 39 -80 108 -80 119 0 6 -4 11 -9 11 -8 0 -50
            78 -57 105 -2 6 -14 42 -28 81 -116 323 -29 716 215 975 55 58 169 149 186
            149 7 0 13 4 13 8 0 17 183 94 275 115 103 24 109 25 245 22 88 -3 150 -10
            208 -25z"/>
        <path d="M1007 14523 c-1 -1 -36 -4 -77 -8 -41 -3 -86 -8 -100 -10 -40 -6
            -101 -14 -150 -20 -25 -3 -52 -8 -60 -10 -14 -4 -63 -14 -105 -21 -11 -1 -35
            -7 -54 -13 -19 -6 -37 -8 -42 -6 -4 3 -10 1 -14 -5 -3 -5 -16 -10 -28 -10 -12
            -1 -44 -9 -72 -19 l-50 -17 0 -1862 c0 -1238 3 -1863 10 -1865 5 -2 221 -3
            480 -3 l470 1 0 1935 0 1935 -103 0 c-57 0 -104 -1 -105 -2z"/>
        <path d="M3127 14524 c-1 -2 -32 -6 -67 -10 -36 -3 -73 -11 -82 -16 -10 -5
            -18 -7 -18 -4 0 2 -28 -3 -62 -11 -35 -8 -70 -16 -78 -18 -8 -2 -16 -4 -17 -5
            -2 -2 -7 -3 -12 -4 -5 0 -13 -4 -17 -8 -4 -5 -15 -8 -25 -8 -20 0 -155 -57
            -250 -105 -73 -37 -237 -144 -283 -184 -49 -43 -229 -224 -259 -260 -160 -193
            -309 -522 -352 -776 -10 -57 -15 -102 -21 -172 -8 -100 -9 -2267 -1 -2280 3
            -5 190 -9 479 -9 l473 1 2 810 c1 446 4 963 6 1150 l3 340 28 80 c82 239 248
            408 477 485 88 30 110 34 224 34 114 0 157 -5 235 -29 118 -37 215 -98 310
            -196 105 -107 176 -245 200 -389 10 -57 13 -334 13 -1177 0 -790 3 -1103 11
            -1106 10 -3 934 -2 946 2 7 2 4 2236 -4 2306 -7 72 -15 133 -20 160 -7 35 -37
            160 -43 175 -4 8 -7 17 -8 20 -17 56 -37 113 -50 145 -29 70 -116 237 -131
            252 -8 8 -14 18 -14 22 0 8 -94 138 -131 181 -55 64 -140 149 -189 190 -30 25
            -59 50 -65 56 -15 15 -101 74 -171 117 -203 122 -429 202 -664 234 -40 5 -368
            11 -373 7z"/>
        <path d="M9288 14525 c-2 -2 -37 -6 -78 -10 -41 -4 -93 -11 -115 -15 -22 -5
            -41 -7 -44 -5 -2 3 -9 1 -15 -4 -6 -5 -31 -12 -55 -16 -24 -3 -67 -14 -95 -24
            -28 -10 -82 -29 -121 -41 -69 -23 -276 -121 -305 -145 -8 -7 -35 -23 -60 -36
            -25 -13 -47 -27 -50 -30 -3 -4 -43 -35 -90 -70 -87 -64 -263 -233 -315 -303
            -17 -22 -41 -53 -55 -70 -108 -130 -274 -462 -306 -611 -1 -5 -10 -37 -19 -70
            -9 -33 -18 -71 -20 -85 -2 -14 -7 -36 -10 -50 -27 -123 -37 -389 -21 -545 11
            -108 12 -118 19 -150 4 -16 9 -41 11 -55 9 -47 47 -185 67 -240 22 -62 25 -69
            68 -163 17 -37 31 -70 31 -72 0 -13 171 -287 190 -305 3 -3 25 -30 50 -60 85
            -104 189 -203 340 -324 9 -6 42 -29 75 -50 33 -21 71 -47 85 -56 89 -61 418
            -195 525 -213 17 -3 57 -11 90 -17 243 -48 528 -43 774 14 71 16 208 59 254
            80 55 24 61 26 90 34 9 2 17 9 17 15 0 6 3 8 6 4 9 -9 167 79 274 152 137 94
            263 207 381 342 57 64 169 217 191 259 7 14 15 27 18 30 5 5 31 51 51 90 36
            69 85 184 113 266 45 132 48 150 33 161 -29 23 -366 125 -492 149 -11 2 -31 6
            -45 9 -106 23 -261 44 -355 49 -16 1 -24 -12 -41 -59 -59 -167 -138 -290 -259
            -404 -103 -96 -225 -168 -355 -210 -65 -22 -81 -25 -175 -41 -73 -12 -238 -4
            -325 15 -72 17 -196 60 -213 75 -8 7 19 32 78 75 16 11 33 25 39 30 6 6 38 30
            71 55 33 25 66 50 75 57 8 7 44 35 80 62 36 28 70 54 75 59 6 4 39 30 75 57
            36 28 67 52 70 56 3 3 41 32 85 64 44 33 85 65 90 71 6 6 26 22 45 34 19 13
            37 27 40 30 6 6 95 76 136 105 15 11 32 25 38 30 14 12 42 34 276 214 102 78
            192 148 200 154 15 12 135 105 155 120 5 4 24 19 40 33 17 14 41 33 55 42 14
            9 34 25 45 34 11 9 76 59 145 112 69 52 137 105 152 118 15 13 43 34 61 48
            l34 24 -40 80 c-23 45 -58 106 -79 138 -21 31 -38 61 -38 67 0 5 -4 11 -8 13
            -4 2 -21 21 -37 43 -75 101 -217 256 -296 320 -87 72 -123 98 -194 146 -158
            105 -407 216 -573 255 -204 48 -244 53 -454 58 -86 2 -158 3 -160 1z m364
            -995 c69 -18 168 -53 190 -66 10 -6 0 -16 -82 -79 -36 -27 -67 -52 -70 -55 -3
            -3 -21 -17 -40 -30 -19 -13 -48 -37 -65 -52 -16 -15 -33 -28 -37 -28 -3 0 -24
            -15 -46 -32 -43 -36 -82 -67 -126 -101 -165 -127 -233 -179 -246 -190 -8 -7
            -33 -26 -55 -42 -22 -17 -46 -36 -55 -42 -8 -7 -91 -72 -185 -144 -93 -72
            -183 -142 -200 -155 -84 -67 -148 -114 -152 -111 -6 7 -14 77 -17 157 -12 295
            116 581 350 780 83 71 242 157 324 175 3 1 24 7 47 14 125 35 335 36 465 1z"/>
        <path d="M18648 14525 c-2 -2 -33 -6 -68 -9 -36 -4 -77 -9 -90 -11 -14 -3 -41
            -8 -60 -11 -19 -3 -43 -10 -52 -15 -9 -5 -21 -8 -25 -7 -9 3 -185 -54 -193
            -62 -3 -3 -12 -6 -20 -8 -57 -13 -279 -139 -383 -219 -144 -111 -243 -212
            -348 -357 -32 -44 -62 -85 -66 -91 -57 -73 -194 -392 -217 -505 -29 -144 -37
            -192 -42 -249 -11 -121 -10 -2320 1 -2324 5 -2 222 -3 480 -3 l470 1 1 1095
            c0 602 4 1124 8 1159 14 115 74 265 141 350 31 39 127 135 155 154 73 50 106
            70 116 71 7 1 19 8 28 15 9 7 16 11 16 8 0 -3 16 1 35 9 101 42 307 54 415 24
            25 -7 50 -13 55 -15 6 -1 21 -7 35 -12 66 -27 64 -28 98 48 18 38 32 75 32 80
            0 5 4 9 9 9 5 0 13 9 16 21 10 31 86 156 145 240 87 121 171 221 275 321 58
            57 66 46 -90 123 -161 79 -324 129 -520 160 -45 7 -351 16 -357 10z"/>
        <path d="M20940 14514 c-112 -16 -164 -25 -171 -30 -3 -2 -21 -6 -40 -9 -127
            -21 -345 -108 -514 -205 -61 -35 -150 -94 -153 -102 -2 -5 -10 -8 -17 -8 -7 0
            -15 -4 -17 -8 -1 -4 -28 -27 -59 -51 -75 -58 -243 -230 -304 -311 -27 -36 -52
            -67 -55 -70 -17 -15 -113 -179 -158 -270 -41 -83 -120 -281 -122 -305 0 -3 -2
            -10 -5 -17 -8 -28 -36 -150 -40 -176 -6 -49 -15 -107 -21 -132 -9 -46 -11
            -334 -3 -410 5 -41 11 -91 13 -110 5 -37 12 -76 23 -125 4 -16 8 -34 8 -40 2
            -14 26 -96 35 -120 5 -11 11 -29 13 -40 20 -78 131 -320 177 -385 11 -16 20
            -31 20 -35 0 -4 8 -17 18 -30 9 -12 24 -33 32 -46 96 -146 392 -442 473 -472
            9 -3 17 -11 17 -17 0 -5 4 -10 9 -10 5 0 33 -16 63 -35 105 -70 377 -193 467
            -211 14 -3 28 -7 31 -9 4 -2 47 -13 96 -24 437 -96 883 -40 1277 159 60 31 97
            45 98 37 1 -6 2 -64 3 -127 l1 -115 480 0 480 0 -1 1015 c0 1049 -2 1126 -32
            1280 -18 89 -21 100 -38 159 -9 31 -18 63 -19 71 -24 103 -182 431 -237 490
            -10 10 -18 23 -18 27 0 4 -16 28 -36 53 -20 25 -50 63 -67 85 -41 52 -198 208
            -261 260 -126 105 -295 207 -451 274 -102 44 -230 89 -275 97 -14 3 -38 9 -55
            14 -16 4 -59 13 -95 19 -36 6 -81 13 -100 17 -70 12 -385 11 -470 -2z m402
            -968 c111 -17 300 -98 393 -169 218 -166 353 -394 391 -662 7 -50 7 -221 -1
            -255 -3 -14 -8 -38 -11 -55 -3 -16 -7 -34 -8 -40 -2 -5 -6 -23 -10 -40 -19
            -78 -91 -232 -129 -276 -10 -11 -17 -23 -17 -28 0 -18 -176 -188 -235 -228
            -175 -116 -344 -168 -550 -167 -310 2 -552 127 -773 401 -27 33 -134 245 -127
            251 2 3 0 12 -5 22 -23 43 -47 208 -45 308 2 95 9 148 32 232 8 30 15 60 17
            65 1 6 7 19 13 30 6 11 11 22 12 25 1 17 45 110 51 110 4 0 10 8 14 18 13 40
            83 131 152 197 60 57 104 95 111 95 2 0 19 11 36 24 75 57 255 127 369 142 24
            4 45 8 47 10 6 5 225 -3 273 -10z"/>
        <path d="M24466 14523 c-1 -1 -24 -5 -51 -8 -262 -35 -484 -144 -671 -331
        -152 -151 -245 -308 -305 -514 -11 -36 -22 -78 -24 -95 -3 -16 -8 -48 -11 -70
        -14 -93 -8 -298 11 -385 4 -14 8 -36 11 -50 3 -14 8 -34 11 -45 4 -11 8 -25 9
        -30 11 -60 138 -315 157 -315 4 0 7 -5 7 -11 0 -27 150 -186 241 -256 60 -46
        163 -110 222 -137 64 -30 203 -75 249 -82 24 -3 50 -8 58 -11 26 -9 95 -11
        481 -13 387 -2 411 -4 474 -44 105 -65 150 -180 119 -301 -24 -95 -109 -179
        -201 -199 -39 -9 -647 -11 -661 -2 -6 3 -13 2 -16 -2 -5 -8 -29 -9 -61 -2 -5
        1 -13 2 -17 1 -23 -5 -379 -2 -387 3 -5 4 -12 2 -15 -2 -5 -8 -29 -9 -61 -2
        -5 1 -14 2 -20 0 -5 -1 -95 -1 -198 -1 -198 0 -193 1 -202 -46 -2 -10 -4 -18
        -5 -18 -1 0 -3 -7 -5 -15 -25 -98 -32 -130 -28 -130 2 0 -1 -8 -6 -18 -5 -10
        -12 -38 -16 -62 -3 -25 -10 -63 -15 -85 -5 -22 -11 -59 -14 -82 -3 -24 -9 -62
        -12 -85 -7 -51 -10 -81 -19 -218 -12 -167 -12 -199 -1 -203 6 -2 436 -3 956
        -2 1027 2 1004 1 1171 59 41 14 78 27 83 28 6 2 39 18 75 37 238 121 419 308
        536 551 33 67 80 211 89 265 3 22 9 60 13 85 11 71 6 320 -7 350 -1 3 -2 8 -1
        12 2 14 -42 173 -50 182 -5 6 -9 16 -9 24 0 23 -72 164 -123 241 -44 67 -86
        118 -158 190 -156 158 -401 282 -627 317 -68 11 -142 13 -494 14 l-377 1 -60
        30 c-95 48 -149 127 -155 230 -8 142 103 274 239 286 41 3 544 6 561 2 5 -1
        11 -1 14 0 4 1 526 1 570 0 8 0 72 0 142 1 l126 2 22 80 c12 44 24 90 26 102
        12 51 14 62 19 86 3 14 8 40 11 59 3 18 8 43 10 55 6 28 15 84 19 121 2 17 6
        46 9 65 9 57 17 168 21 285 l4 110 -840 0 c-462 0 -841 -1 -843 -2z"/>
    </g>
</svg>
